<svg xmlns="http://www.w3.org/2000/svg" width="40" height="40" viewBox="0 0 512 512"><path d="M408.028 408.028c-19.759 19.758-42.756 35.266-68.354 46.093-6.503 2.75-13.107 5.164-19.8 7.246v-38.367c0-20.167-6.917-35-20.75-44.5 8.667-.833 16.625-2 23.875-3.5s14.917-3.667 23-6.5 15.333-6.208 21.75-10.125 12.583-9 18.5-15.25 10.875-13.333 14.875-21.25 7.167-17.417 9.5-28.5 3.5-23.292 3.5-36.625c0-25.833-8.417-47.833-25.25-66 7.667-20 6.833-41.75-2.5-65.25l-6.25-.75c-4.333-.5-12.125 1.333-23.375 5.5s-23.875 11-37.875 20.5c-19.833-5.5-40.417-8.25-61.75-8.25-21.5 0-42 2.75-61.5 8.25-8.833-6-17.208-10.958-25.125-14.875-7.917-3.917-14.25-6.583-19-8s-9.167-2.292-13.25-2.625-6.708-.417-7.875-.25-2 .333-2.5.5c-9.333 23.667-10.167 45.417-2.5 65.25-16.833 18.167-25.25 40.167-25.25 66 0 13.333 1.167 25.542 3.5 36.625s5.5 20.583 9.5 28.5 8.958 15 14.875 21.25 12.083 11.333 18.5 15.25 13.667 7.292 21.75 10.125 15.75 5 23 6.5 15.208 2.667 23.875 3.5c-13.667 9.333-20.5 24.167-20.5 44.5v39.115c-7.549-2.247-14.99-4.902-22.3-7.994-25.597-10.827-48.594-26.335-68.353-46.093-19.758-19.759-35.267-42.756-46.093-68.354-11.199-26.479-16.878-54.631-16.878-83.674s5.679-57.195 16.879-83.675c10.827-25.597 26.335-48.594 46.093-68.353s42.756-35.267 68.353-46.093c26.48-11.2 54.632-16.879 83.675-16.879s57.195 5.679 83.675 16.879c25.598 10.827 48.595 26.335 68.354 46.093 19.758 19.758 35.266 42.756 46.093 68.353 11.199 26.48 16.878 54.632 16.878 83.675s-5.679 57.195-16.879 83.675c-10.827 25.597-26.335 48.595-46.093 68.353z" fill="#333333"/></svg>
